<svg height="512" viewBox="0 0 512 512" width="512" xmlns="http://www.w3.org/2000/svg">
  <g><path fill="#fe9900" d="M0 0h512v512h-512z"/><path d="M292.578 183.824c-9.682.765-20.853 1.502-32.021 3.006-17.12 2.212-34.24 5.219-48.386 11.908-27.544 11.208-46.163 35.053-46.163 70.114 0 44.017 28.299 66.355 64.026 66.355 11.931 0 21.606-1.466 30.523-3.709 14.156-4.482 26.07-12.67 40.209-27.596 8.193 11.205 10.414 16.428 24.575 28.338 3.725 1.502 7.448 1.502 10.413-.742 8.932-7.459 24.561-20.873 32.773-28.331 3.711-3.011 2.956-7.463.739-11.204-8.198-10.434-16.381-19.401-16.381-39.507v-67.131c0-28.359 2.214-54.453-18.614-73.822-17.123-15.686-43.93-21.642-64.769-21.642h-8.948c-37.965 2.246-78.168 18.635-87.121 65.629-1.462 5.954 3.012 8.198 5.989 8.962l41.677 5.224c4.471-.773 6.691-4.491 7.432-8.233 3.74-16.388 17.135-24.583 32.023-26.087h2.998c8.905 0 18.586 3.743 23.814 11.168 5.931 8.966 5.21 20.904 5.21 31.339v5.961zm0 43.278c0 17.162.723 30.572-8.196 45.461-5.207 10.437-14.14 17.155-23.827 19.401-1.481 0-3.698.765-5.947.765-16.37 0-26.077-12.673-26.077-31.334 0-23.856 14.159-35.055 32.023-40.277 9.687-2.241 20.86-2.982 32.021-2.982v8.966zm137.132 177.201c18.201-15.399 25.889-43.348 26.29-57.94v-2.44c0-3.255-.802-5.662-1.599-6.88-3.645-4.445-30.369-8.523-53.402-1.628-6.468 2.046-12.146 4.866-17.396 8.507-4.051 2.853-3.238 6.464.802 6.08 4.447-.823 10.126-1.208 16.594-2.049 14.159-1.18 30.742-1.592 34.784 3.663 5.641 6.87-6.468 36.868-11.75 49.838-1.593 4.066 2.029 5.696 5.677 2.847zm-371.702-57.938c52.17 47.404 120.925 75.776 197.791 75.776 47.725 0 102.727-13.381 145.2-38.899 5.676-3.271 11.316-6.912 16.566-10.953 7.285-5.25.818-13.38-6.463-10.148-3.229 1.216-6.873 2.858-10.103 4.066-46.539 18.248-95.441 26.761-140.762 26.761-72.007 0-141.559-19.871-197.785-52.685-5.26-2.821-8.908 2.428-4.442 6.081z" fill="#fff"/></g>
</svg>